<svg width="100" height="100" viewBox="0 0 100 100" fill="none" xmlns="http://www.w3.org/2000/svg">
<path opacity="0.5" d="M53.8578 33.4041L53.8588 33.405L61.3168 46.7761C61.9967 47.9975 62.598 49.0835 63.1761 49.907C63.7313 50.6977 64.437 51.5065 65.4613 52.0183L65.6703 52.1169C66.6833 52.5644 67.8009 52.7196 68.8978 52.5671C70.1312 52.3966 71.1026 51.7763 71.9047 51.1277C72.688 50.4942 73.5674 49.6142 74.5599 48.6257L74.5609 48.6248C75.9077 47.2822 76.9838 46.2093 77.892 45.366C78.1165 45.1574 78.3238 44.9689 78.516 44.7996C78.8753 45.0368 79.2506 45.2507 79.6429 45.4333C80.0217 45.6097 80.413 45.7547 80.8109 45.8748C80.7998 46.1201 80.7856 46.3877 80.765 46.6794C80.6773 47.9203 80.5137 49.4406 80.3099 51.3523L79.5433 58.4509C79.4119 59.6615 79.2904 60.8497 79.1713 62.0046C78.6418 67.1204 78.1754 71.6113 77.4174 75.2195C76.6346 78.945 75.6521 81.1071 74.5336 82.1072L74.5326 82.1082C73.0845 83.4047 71.1839 84.1717 68.0023 84.5789C64.751 84.995 60.508 84.9998 54.5336 84.9998H45.4672C39.4925 84.9998 35.2489 84.995 31.9974 84.5789C28.816 84.1717 26.9152 83.4047 25.4672 82.1082L25.4662 82.1072L25.2582 81.906C24.2257 80.8308 23.3172 78.7122 22.5834 75.2195C21.8253 71.6113 21.3579 67.1205 20.8285 62.0046V62.0017L20.4574 58.4607L20.4564 58.4519L19.6898 51.3523C19.4861 49.4407 19.3235 47.9189 19.2357 46.6775C19.2152 46.3868 19.199 46.1202 19.1879 45.8757C19.5866 45.7558 19.9783 45.6108 20.3578 45.4343C20.7506 45.2516 21.127 45.038 21.4867 44.8005C22.433 45.6381 23.6839 46.8753 25.4388 48.6248L25.4398 48.6257C26.4325 49.6144 27.3118 50.4936 28.0941 51.1267C28.8943 51.7743 29.8648 52.3962 31.097 52.5671V52.5681C32.1941 52.7207 33.3124 52.5644 34.3256 52.1169C35.4641 51.6149 36.2275 50.7506 36.8197 49.908C37.3982 49.0848 38.001 47.9987 38.683 46.7771L38.684 46.7751L46.1371 33.4041C46.5677 32.6351 46.9538 31.9466 47.307 31.3279C48.1694 31.5483 49.0719 31.6667 50.0004 31.6667C50.9287 31.6667 51.8305 31.5483 52.6927 31.3279C53.0447 31.946 53.4291 32.6349 53.8578 33.4041Z" stroke="#9C8639" stroke-width="5"/>
<path d="M83.3333 43.75C84.9876 43.7401 86.5706 43.0747 87.7351 41.8996C88.8996 40.7245 89.5508 39.1357 89.5458 37.4814C89.5408 35.827 88.8802 34.2421 87.7086 33.0741C86.537 31.906 84.9502 31.2501 83.2958 31.2501C81.6415 31.2501 80.0546 31.906 78.883 33.0741C77.7115 34.2421 77.0508 35.827 77.0459 37.4814C77.0409 39.1357 77.692 40.7245 78.8566 41.8996C80.0211 43.0747 81.604 43.7401 83.2583 43.75H83.3333ZM50 12.5C47.7899 12.5 45.6702 13.378 44.1074 14.9408C42.5446 16.5036 41.6667 18.6232 41.6667 20.8333C41.6667 23.0435 42.5446 25.1631 44.1074 26.7259C45.6702 28.2887 47.7899 29.1667 50 29.1667C52.2101 29.1667 54.3297 28.2887 55.8925 26.7259C57.4553 25.1631 58.3333 23.0435 58.3333 20.8333C58.3333 18.6232 57.4553 16.5036 55.8925 14.9408C54.3297 13.378 52.2101 12.5 50 12.5ZM10.4167 37.5C10.4167 39.1576 11.0751 40.7473 12.2472 41.9194C13.4193 43.0915 15.0091 43.75 16.6667 43.75H16.7417C18.3873 43.7335 19.9597 43.0674 21.1163 41.8967C22.2729 40.726 22.92 39.1457 22.9167 37.5C22.9167 35.8424 22.2582 34.2527 21.0861 33.0806C19.914 31.9085 18.3243 31.25 16.6667 31.25C15.0091 31.25 13.4193 31.9085 12.2472 33.0806C11.0751 34.2527 10.4167 35.8424 10.4167 37.5ZM20.2042 76.0417C19.7746 73.9737 19.4327 71.8885 19.1792 69.7917H80.8208C80.5292 72.0625 80.2041 74.1667 79.7958 76.0417H50H20.2042Z" fill="#ED7125"/>
</svg>
