<svg width="99" height="99" viewBox="0 0 99 99" fill="none" xmlns="http://www.w3.org/2000/svg">
<g clip-path="url(#clip0_1697_39853)">
<path d="M98.663 19.0974C98.565 10.7515 94.294 6.15503 86.6365 6.15503C83.6727 6.15503 80.8168 6.8449 78.9498 7.42049C79.1357 4.00917 79.1386 1.90345 79.1386 1.79878L79.1388 0.338379H19.8621V1.79859C19.8621 1.84853 19.867 3.98747 20.0551 7.42222C18.1883 6.84624 15.3297 6.15503 12.363 6.15503C4.70566 6.15503 0.434499 10.7513 0.336549 19.0974C0.240137 27.3078 2.1127 34.6164 5.90179 40.8204C9.62194 46.9115 14.3769 50.5819 17.7108 52.588C23.0506 55.8015 28.3873 56.476 31.9242 56.476C32.7962 56.476 33.6362 56.4349 34.4219 56.3538C34.474 56.3484 34.5222 56.3423 34.5731 56.3367C36.2831 58.1784 38.1267 59.6535 40.0966 60.7498C41.5488 61.5578 42.5588 62.9669 42.9049 64.5865C40.9469 65.1959 39.5212 67.0253 39.5212 69.1811C39.5212 71.3854 41.0122 73.247 43.0378 73.8135V79.9421H35.1362V86.3378H27.3387V98.6615H71.6618V86.3378H63.8643V79.9421H55.9627V73.8135C57.9885 73.2468 59.4794 71.3854 59.4794 69.1811C59.4794 67.0251 58.0538 65.1959 56.0958 64.5865C56.4419 62.9669 57.4517 61.558 58.904 60.7498C60.8692 59.6564 62.7254 58.1732 64.4312 56.3375C65.0357 56.4045 65.942 56.4758 67.0751 56.4758H67.0759C70.6124 56.4758 75.9489 55.8009 81.2883 52.5878C84.622 50.5815 89.3772 46.9113 93.0973 40.8202C96.887 34.6164 98.7594 27.3076 98.663 19.0974ZM76.1942 3.2588C76.1776 3.92278 76.1557 4.58662 76.1285 5.25024H22.8781C22.85 4.58662 22.8268 3.92278 22.8088 3.2588H76.1942ZM78.1804 16.6669C80.159 16.0083 82.7234 15.3442 85.0206 15.3442C86.9467 15.3442 88.3335 15.8147 89.1427 16.7428C90.0726 17.8094 90.3724 19.6013 90.0333 22.0693C88.6211 32.3493 84.1636 40.3739 77.4815 44.6642C75.154 46.1588 72.6473 46.7763 70.5465 46.9956C74.9902 37.6557 77.1408 25.9371 78.1804 16.6669ZM22.3227 26.8388C23.7591 34.5432 25.7423 41.1592 28.2175 46.5028C28.2941 46.6687 28.3721 46.8322 28.4497 46.9956C26.3497 46.7757 23.8446 46.1585 21.518 44.6646C14.8361 40.3741 10.3785 32.3497 8.96626 22.0697C8.62728 19.6015 8.92689 17.8094 9.85702 16.7431C10.6662 15.8151 12.0532 15.3448 13.9791 15.3448C16.2783 15.3448 18.8449 16.0099 20.8243 16.6688C21.1778 19.8305 21.6612 23.2911 22.3227 26.8388ZM31.9242 53.5555C28.7576 53.5555 23.9821 52.9534 19.2169 50.0858C14.3435 47.1531 3.03227 38.2659 3.25697 19.1318C3.33648 12.365 6.3151 9.07564 12.363 9.07564C15.5974 9.07564 18.7919 10.0507 20.2521 10.565C20.3249 11.5447 20.4065 12.5273 20.4968 13.5058C18.5119 12.9227 16.1732 12.4238 13.9791 12.4238C11.1717 12.4238 9.04423 13.231 7.65566 14.8231C6.14628 16.5542 5.61371 19.1258 6.07272 22.4666C6.85901 28.1901 8.50225 33.2489 10.9569 37.5022C13.3002 41.5627 16.3226 44.7993 19.9398 47.1216C23.4729 49.3904 27.2943 49.9625 30.0202 50.0173C30.0294 50.0334 30.0388 50.0488 30.048 50.0647C30.2418 50.4041 30.4405 50.7408 30.644 51.0745C30.7893 51.3135 30.9359 51.5501 31.084 51.7819C31.1397 51.8691 31.1961 51.9542 31.2522 52.0406C31.4484 52.3425 31.649 52.6414 31.8541 52.9373C31.9519 53.0781 32.0498 53.2181 32.1485 53.3562C32.1948 53.4211 32.2403 53.4885 32.2866 53.5527C32.1691 53.5546 32.0483 53.5555 31.9242 53.5555ZM68.7416 89.2586V95.7411H30.2595V89.2586H68.7416ZM55.9631 82.8629H60.9439V86.338H38.057V82.8629H55.9631ZM45.9584 79.9423V73.992H53.0424V79.9423H45.9584ZM56.5592 69.1811C56.5592 70.2234 55.7111 71.0714 54.669 71.0714H44.3321C43.2898 71.0714 42.4418 70.2234 42.4418 69.1811C42.4418 68.1388 43.2898 67.2909 44.3321 67.2909H54.669C55.7113 67.2909 56.5592 68.1388 56.5592 69.1811ZM63.8639 52.4867L63.8155 52.5495C63.6719 52.7354 63.527 52.9167 63.3815 53.0956C63.3457 53.1391 63.3106 53.1835 63.2747 53.2269C63.1163 53.4193 62.9552 53.6093 62.7913 53.7969C62.7834 53.8058 62.7761 53.815 62.7682 53.8238C61.1398 55.6816 59.3621 57.153 57.4843 58.1978C55.1699 59.4853 53.5961 61.7721 53.1632 64.3703H45.8378C45.4047 61.7719 43.831 59.4853 41.5165 58.1978C39.7043 57.1896 38.0675 55.842 36.5889 54.2316L36.2317 53.824C34.7797 52.1681 33.4111 50.1619 32.1641 47.8616L31.7821 47.1566C25.5024 35.023 23.6029 17.486 23.0302 8.17067H75.9814C75.957 8.57591 75.9303 8.9944 75.9007 9.42903L75.8965 9.4901C75.8641 9.9622 75.8296 10.4342 75.793 10.9059L75.7899 10.9476C75.6732 12.4453 75.5356 13.9412 75.3772 15.435L75.2817 16.3335C74.2206 25.8457 71.9795 37.9639 67.2535 47.092L66.8362 47.8614C65.9076 49.5738 64.9116 51.1229 63.8639 52.4867ZM79.7828 50.0858C75.0173 52.9536 70.2427 53.5555 67.0763 53.5555H67.0755C66.9512 53.5555 66.8304 53.5546 66.7127 53.5527L66.7185 53.5444C66.9088 53.2816 67.0955 53.0163 67.2785 52.7483C67.301 52.7155 67.3231 52.6819 67.3455 52.649C67.5009 52.4201 67.654 52.1881 67.8053 51.9538C68.0143 51.6309 68.2184 51.305 68.4176 50.976C68.4431 50.934 68.4679 50.8907 68.4933 50.8483C68.6269 50.625 68.7584 50.4005 68.8877 50.1748C68.9181 50.1217 68.9494 50.071 68.9799 50.0177C71.7058 49.9629 75.5272 49.3908 79.0602 47.122C82.6775 44.7993 85.6999 41.5627 88.0432 37.5026C90.4977 33.2493 92.1409 28.1905 92.9274 22.467C93.386 19.126 92.8536 16.5544 91.3444 14.8235C89.956 13.2312 87.8284 12.424 85.0209 12.424C82.8271 12.424 80.488 12.9225 78.5033 13.5058C78.5953 12.5081 78.6742 11.5511 78.7418 10.6415L78.7478 10.5654C80.2084 10.0509 83.4027 9.07603 86.6369 9.07603C92.6848 9.07603 95.6634 12.3654 95.7431 19.1318C95.967 38.2659 84.6562 47.1529 79.7828 50.0858Z" fill="#3A3A3A"/>
<path d="M37.2742 47.6245L34.8351 49.2314C35.6679 50.4957 36.5629 51.6444 37.4953 52.6454L39.6325 50.6546C38.8111 49.7728 38.0177 48.7532 37.2742 47.6245ZM31.0055 31.4312L28.1581 32.0807C29.5585 38.2198 31.4282 43.3735 33.7148 47.3984L36.2542 45.9557C34.1086 42.1789 32.3426 37.2922 31.0055 31.4312ZM85.5402 64.3857L85.538 61.4651L83.0726 61.4666L83.0709 59.0012L80.1503 59.0031L80.152 61.4687L77.6865 61.4704L77.6885 64.3911L80.1539 64.3893L80.1556 66.8546L83.0763 66.8527L83.0745 64.3872L85.5402 64.3857ZM21.9921 79.5517L21.989 76.6311L19.9201 76.6332L19.918 74.5641L16.9974 74.5672L16.9995 76.6361L14.9303 76.6382L14.9336 79.5588L17.0024 79.5567L17.0045 81.6259L19.9251 81.6228L19.923 79.5538L21.9921 79.5517ZM9.71191 55.6763H12.467V58.5969H9.71191V55.6763ZM27.4184 64.3173H30.1735V67.2379H27.4184V64.3173ZM71.825 73.1043H74.58V76.0249H71.825V73.1043Z" fill="#3A3A3A"/>
</g>
<defs>
<clipPath id="clip0_1697_39853">
<rect width="98.3333" height="98.3333" fill="white" transform="translate(0.333008 0.33252)"/>
</clipPath>
</defs>
</svg>
