<svg width="100" height="100" viewBox="0 0 100 100" fill="none" xmlns="http://www.w3.org/2000/svg">
<path opacity="0.5" d="M53.8577 33.4041L53.8586 33.405L61.3167 46.7761C61.9965 47.9975 62.5979 49.0835 63.176 49.907C63.7312 50.6977 64.4369 51.5065 65.4612 52.0183L65.6702 52.1169C66.6831 52.5644 67.8008 52.7196 68.8977 52.5671C70.131 52.3966 71.1025 51.7763 71.9045 51.1277C72.6878 50.4942 73.5673 49.6142 74.5598 48.6257L74.5608 48.6248C75.9076 47.2822 76.9837 46.2093 77.8918 45.366C78.1164 45.1574 78.3236 44.9689 78.5159 44.7996C78.8751 45.0368 79.2505 45.2507 79.6428 45.4333C80.0215 45.6097 80.4128 45.7547 80.8108 45.8748C80.7997 46.1201 80.7855 46.3877 80.7649 46.6794C80.6771 47.9203 80.5136 49.4406 80.3098 51.3523L79.5432 58.4509C79.4118 59.6615 79.2902 60.8497 79.1711 62.0046C78.6417 67.1204 78.1753 71.6113 77.4172 75.2195C76.6345 78.945 75.652 81.1071 74.5334 82.1072L74.5325 82.1082C73.0844 83.4047 71.1838 84.1717 68.0022 84.5789C64.7508 84.995 60.5079 84.9998 54.5334 84.9998H45.467C39.4924 84.9998 35.2487 84.995 31.9973 84.5789C28.8158 84.1717 26.9151 83.4047 25.467 82.1082L25.4661 82.1072L25.2581 81.906C24.2256 80.8308 23.3171 78.7122 22.5833 75.2195C21.8252 71.6113 21.3578 67.1205 20.8284 62.0046V62.0017L20.4573 58.4607L20.4563 58.4519L19.6897 51.3523C19.4859 49.4407 19.3233 47.9189 19.2356 46.6775C19.215 46.3868 19.1988 46.1202 19.1877 45.8757C19.5865 45.7558 19.9782 45.6108 20.3577 45.4343C20.7505 45.2516 21.1269 45.038 21.4866 44.8005C22.4329 45.6381 23.6837 46.8753 25.4387 48.6248L25.4397 48.6257C26.4323 49.6144 27.3117 50.4936 28.094 51.1267C28.8942 51.7743 29.8647 52.3962 31.0969 52.5671V52.5681C32.194 52.7207 33.3123 52.5644 34.3254 52.1169C35.464 51.6149 36.2274 50.7506 36.8196 49.908C37.3981 49.0848 38.0009 47.9987 38.6829 46.7771L38.6838 46.7751L46.137 33.4041C46.5676 32.6351 46.9537 31.9466 47.3069 31.3279C48.1693 31.5483 49.0717 31.6667 50.0002 31.6667C50.9285 31.6667 51.8304 31.5483 52.6926 31.3279C53.0446 31.946 53.429 32.6349 53.8577 33.4041Z" stroke="#9C8639" stroke-width="5"/>
<path d="M83.3334 43.75C84.9877 43.7401 86.5706 43.0747 87.7352 41.8996C88.8997 40.7245 89.5508 39.1357 89.5459 37.4814C89.5409 35.827 88.8803 34.2421 87.7087 33.0741C86.5371 31.906 84.9503 31.2501 83.2959 31.2501C81.6415 31.2501 80.0547 31.906 78.8831 33.0741C77.7116 34.2421 77.0509 35.827 77.0459 37.4814C77.041 39.1357 77.6921 40.7245 78.8567 41.8996C80.0212 43.0747 81.6041 43.7401 83.2584 43.75H83.3334ZM50.0001 12.5C47.7899 12.5 45.6703 13.378 44.1075 14.9408C42.5447 16.5036 41.6667 18.6232 41.6667 20.8333C41.6667 23.0435 42.5447 25.1631 44.1075 26.7259C45.6703 28.2887 47.7899 29.1667 50.0001 29.1667C52.2102 29.1667 54.3298 28.2887 55.8926 26.7259C57.4554 25.1631 58.3334 23.0435 58.3334 20.8333C58.3334 18.6232 57.4554 16.5036 55.8926 14.9408C54.3298 13.378 52.2102 12.5 50.0001 12.5ZM10.4167 37.5C10.4167 39.1576 11.0752 40.7473 12.2473 41.9194C13.4194 43.0915 15.0091 43.75 16.6667 43.75H16.7417C18.3873 43.7335 19.9598 43.0674 21.1164 41.8967C22.273 40.726 22.9201 39.1457 22.9167 37.5C22.9167 35.8424 22.2583 34.2527 21.0862 33.0806C19.9141 31.9085 18.3244 31.25 16.6667 31.25C15.0091 31.25 13.4194 31.9085 12.2473 33.0806C11.0752 34.2527 10.4167 35.8424 10.4167 37.5ZM20.2042 76.0417C19.7747 73.9737 19.4328 71.8885 19.1792 69.7917H80.8209C80.5292 72.0625 80.2042 74.1667 79.7959 76.0417H50.0001H20.2042Z" fill="#ED7125"/>
</svg>
